<svg width="152" height="32" viewBox="0 0 152 32" fill="none" xmlns="http://www.w3.org/2000/svg">
<path d="M2.25891 20.7495V14.4883H0.603516V11.2629H2.25891V7.91089H6.16563V11.2629H9.4102V14.4883H6.16563V20.1171C6.16563 21.0025 6.56292 21.382 7.42373 21.382C8.1521 21.382 8.81426 21.1923 9.34398 20.9393V23.975C8.54939 24.4177 7.55616 24.734 6.23184 24.734C3.84808 24.734 2.25891 23.8485 2.25891 20.7495Z" fill="black"/>
<path d="M11.2637 17.9035C11.2637 14.1089 14.1109 11.0099 18.0839 11.0099C22.719 11.0099 24.8379 14.4251 24.8379 18.2198C24.8379 18.536 24.8379 18.8522 24.7717 19.2317H15.1704C15.5677 20.9393 16.8258 21.8247 18.5474 21.8247C19.8717 21.8247 20.7987 21.4452 21.9244 20.4966L24.1757 22.3939C22.8514 23.9118 20.9974 24.8605 18.5474 24.8605C14.3096 24.7972 11.2637 22.0144 11.2637 17.9035ZM20.9974 16.8916C20.7325 15.184 19.7393 14.1089 18.0839 14.1089C16.4285 14.1089 15.369 15.2473 15.1042 16.8916H20.9974Z" fill="black"/>
<path d="M30.6636 17.7771L25.9623 11.2629H30.2001L32.7825 15.1209L35.3649 11.2629H39.4703L34.769 17.7139L39.669 24.4811H35.4312L32.6501 20.3702L29.869 24.4811H25.7637L30.6636 17.7771Z" fill="black"/>
<path d="M42.0527 11.2629H45.9595V13.1602C46.8865 12.0218 48.0121 11.0099 49.9986 11.0099C52.9783 11.0099 54.6999 12.9072 54.6999 15.943V24.481H50.7932V17.1446C50.7932 15.3738 49.9324 14.4251 48.4094 14.4251C46.8865 14.4251 45.9595 15.3105 45.9595 17.1446V24.5442H42.0527V11.2629Z" fill="black"/>
<path d="M57.4805 17.9036C57.4805 14.1089 60.6588 11.0099 65.0291 11.0099C69.3331 11.0099 72.5114 14.0456 72.5114 17.9036C72.5114 21.6982 69.3331 24.7972 64.9628 24.7972C60.6588 24.7972 57.4805 21.7615 57.4805 17.9036ZM68.6047 17.9036C68.6047 15.943 67.1479 14.2354 64.9628 14.2354C62.7115 14.2354 61.3872 15.8797 61.3872 17.9036C61.3872 19.8641 62.8439 21.5717 65.0291 21.5717C67.2804 21.5717 68.6047 19.9274 68.6047 17.9036Z" fill="black"/>
<path d="M75.293 11.2629H79.1997V13.1602C80.1267 12.0218 81.3186 11.0099 83.3051 11.0099C85.0929 11.0099 86.4834 11.7688 87.2118 13.097C88.4037 11.7688 89.8604 11.0099 91.7807 11.0099C94.6942 11.0099 96.482 12.7175 96.482 15.8797V24.481H92.5752V17.1446C92.5752 15.3738 91.7807 14.4251 90.2577 14.4251C88.801 14.4251 87.8739 15.3105 87.8739 17.1446V24.5442H83.9672V17.1446C83.9672 15.3738 83.1726 14.4251 81.6497 14.4251C80.1929 14.4251 79.2659 15.3105 79.2659 17.1446V24.5442H75.3592V11.2629H75.293Z" fill="black"/>
<path d="M99 20.6863C99 17.777 101.318 16.4489 104.562 16.4489C105.953 16.4489 106.946 16.7019 107.939 17.0181V16.7651C107.939 15.184 106.946 14.3618 104.959 14.3618C103.436 14.3618 102.377 14.6148 101.119 15.0575L100.126 12.2115C101.649 11.5791 103.172 11.1364 105.489 11.1364C107.608 11.1364 109.197 11.7056 110.19 12.591C111.25 13.6029 111.713 15.0575 111.713 16.8284V24.481H107.939V23.0263C107.012 24.0383 105.688 24.7339 103.768 24.7339C101.185 24.7339 99 23.3426 99 20.6863ZM108.072 19.8641V19.1684C107.409 18.8522 106.549 18.6625 105.555 18.6625C103.9 18.6625 102.841 19.2949 102.841 20.5598C102.841 21.5717 103.701 22.1409 104.959 22.1409C106.813 22.1409 108.072 21.1922 108.072 19.8641Z" fill="black"/>
<path d="M115.156 11.2628H119.063V13.9191C119.858 12.085 121.182 10.8834 123.499 11.0098V14.931H123.301C120.718 14.931 119.063 16.4489 119.063 19.6111V24.481H115.156V11.2628Z" fill="black"/>
<path d="M126.61 20.7495V14.4883H124.955V11.2629H126.61V7.91089H130.517V11.2629H133.762V14.4883H130.517V20.1171C130.517 21.0025 130.914 21.382 131.775 21.382C132.504 21.382 133.166 21.1923 133.696 20.9393V23.975C132.901 24.4177 131.908 24.734 130.583 24.734C128.2 24.734 126.61 23.8485 126.61 20.7495Z" fill="black"/>
<path d="M151.706 10.1246L149.72 13.3501L145.747 11.1365V15.5636H141.774V11.1365L137.801 13.3501L135.814 10.1246L139.854 7.91102L135.881 5.69746L137.801 2.47198L141.774 4.68555V0.258423H145.747V4.68555L149.72 2.47198L151.64 5.69746L147.667 7.91102L151.706 10.1246Z" fill="black"/>
</svg>
